<svg width="231" height="48" viewBox="0 0 231 48" fill="none" xmlns="http://www.w3.org/2000/svg">
<path d="M0.425781 12.6316C0.425781 5.65535 6.08113 0 13.0574 0H35.7942C42.7704 0 48.4258 5.65535 48.4258 12.6316V35.3684C48.4258 42.3446 42.7704 48 35.7942 48H13.0574C6.08113 48 0.425781 42.3446 0.425781 35.3684V12.6316Z" fill="#465FFF"/>
<g filter="url(#filter0_d_1_2)">
<path d="M13.0615 12.6323C13.0615 11.237 14.1926 10.106 15.5878 10.106C16.9831 10.106 18.1142 11.237 18.1142 12.6323V35.3691C18.1142 36.7644 16.9831 37.8954 15.5878 37.8954C14.1926 37.8954 13.0615 36.7644 13.0615 35.3691V12.6323Z" fill="white"/>
</g>
<g filter="url(#filter1_d_1_2)">
<path d="M22.5391 22.7353C22.5391 21.3401 23.6701 20.209 25.0654 20.209C26.4606 20.209 27.5917 21.3401 27.5917 22.7353V35.3669C27.5917 36.7621 26.4606 37.8932 25.0654 37.8932C23.6701 37.8932 22.5391 36.7621 22.5391 35.3669V22.7353Z" fill="white" fill-opacity="0.9"/>
</g>
<g filter="url(#filter2_d_1_2)">
<path d="M32.0078 16.4189C32.0078 15.0236 33.1389 13.8926 34.5341 13.8926C35.9294 13.8926 37.0604 15.0236 37.0604 16.4189V35.3663C37.0604 36.7615 35.9294 37.8926 34.5341 37.8926C33.1389 37.8926 32.0078 36.7615 32.0078 35.3663V16.4189Z" fill="white" fill-opacity="0.7"/>
</g>
<path d="M68.0341 36H62.7614L70.7955 12.7273H77.1364L85.1591 36H79.8864L74.0568 18.0455H73.875L68.0341 36ZM67.7045 26.8523H80.1591V30.6932H67.7045V26.8523ZM92.7102 12.7273V36H87.8693V12.7273H92.7102ZM105.872 18.5455V22.1818H95.3608V18.5455H105.872ZM97.7472 14.3636H102.588V30.6364C102.588 31.0833 102.656 31.4318 102.793 31.6818C102.929 31.9242 103.118 32.0947 103.361 32.1932C103.611 32.2917 103.899 32.3409 104.224 32.3409C104.452 32.3409 104.679 32.322 104.906 32.2841C105.134 32.2386 105.308 32.2045 105.429 32.1818L106.19 35.7841C105.948 35.8598 105.607 35.947 105.168 36.0455C104.728 36.1515 104.194 36.2159 103.565 36.2386C102.399 36.2841 101.376 36.1288 100.497 35.7727C99.6259 35.4167 98.9479 34.8636 98.4631 34.1136C97.9782 33.3636 97.7396 32.4167 97.7472 31.2727V14.3636ZM114.003 36.3295C112.889 36.3295 111.897 36.1364 111.026 35.75C110.154 35.3561 109.465 34.7765 108.957 34.0114C108.457 33.2386 108.207 32.2765 108.207 31.125C108.207 30.1553 108.385 29.3409 108.741 28.6818C109.098 28.0227 109.582 27.4924 110.196 27.0909C110.81 26.6894 111.507 26.3864 112.287 26.1818C113.075 25.9773 113.901 25.8333 114.764 25.75C115.779 25.6439 116.598 25.5455 117.219 25.4545C117.84 25.3561 118.291 25.2121 118.571 25.0227C118.851 24.8333 118.991 24.553 118.991 24.1818V24.1136C118.991 23.3939 118.764 22.8371 118.31 22.4432C117.863 22.0492 117.226 21.8523 116.401 21.8523C115.529 21.8523 114.836 22.0455 114.321 22.4318C113.806 22.8106 113.465 23.2879 113.298 23.8636L108.821 23.5C109.048 22.4394 109.495 21.5227 110.162 20.75C110.829 19.9697 111.688 19.3712 112.741 18.9545C113.802 18.5303 115.029 18.3182 116.423 18.3182C117.393 18.3182 118.321 18.4318 119.207 18.6591C120.101 18.8864 120.893 19.2386 121.582 19.7159C122.279 20.1932 122.829 20.8068 123.23 21.5568C123.632 22.2992 123.832 23.1894 123.832 24.2273V36H119.241V33.5795H119.105C118.825 34.125 118.45 34.6061 117.98 35.0227C117.51 35.4318 116.946 35.7538 116.287 35.9886C115.628 36.2159 114.866 36.3295 114.003 36.3295ZM115.389 32.9886C116.101 32.9886 116.73 32.8485 117.276 32.5682C117.821 32.2803 118.249 31.8939 118.56 31.4091C118.87 30.9242 119.026 30.375 119.026 29.7614V27.9091C118.874 28.0076 118.666 28.0985 118.401 28.1818C118.143 28.2576 117.851 28.3295 117.526 28.3977C117.2 28.4583 116.874 28.5152 116.548 28.5682C116.223 28.6136 115.927 28.6553 115.662 28.6932C115.094 28.7765 114.598 28.9091 114.173 29.0909C113.749 29.2727 113.42 29.5189 113.185 29.8295C112.95 30.1326 112.832 30.5114 112.832 30.9659C112.832 31.625 113.071 32.1288 113.548 32.4773C114.033 32.8182 114.647 32.9886 115.389 32.9886ZM130.259 12.7273L135.884 30.4091H136.099L141.736 12.7273H147.19L139.168 36H132.827L124.793 12.7273H130.259ZM149.901 36V18.5455H154.741V36H149.901ZM152.332 16.2955C151.613 16.2955 150.995 16.0568 150.48 15.5795C149.973 15.0947 149.719 14.5152 149.719 13.8409C149.719 13.1742 149.973 12.6023 150.48 12.125C150.995 11.6402 151.613 11.3977 152.332 11.3977C153.052 11.3977 153.666 11.6402 154.173 12.125C154.688 12.6023 154.946 13.1742 154.946 13.8409C154.946 14.5152 154.688 15.0947 154.173 15.5795C153.666 16.0568 153.052 16.2955 152.332 16.2955ZM173.142 23.5227L168.71 23.7955C168.634 23.4167 168.472 23.0758 168.222 22.7727C167.972 22.4621 167.642 22.2159 167.233 22.0341C166.831 21.8447 166.35 21.75 165.79 21.75C165.04 21.75 164.407 21.9091 163.892 22.2273C163.377 22.5379 163.119 22.9545 163.119 23.4773C163.119 23.8939 163.286 24.2462 163.619 24.5341C163.953 24.822 164.525 25.053 165.335 25.2273L168.494 25.8636C170.191 26.2121 171.456 26.7727 172.29 27.5455C173.123 28.3182 173.54 29.3333 173.54 30.5909C173.54 31.7348 173.203 32.7386 172.528 33.6023C171.862 34.4659 170.945 35.1402 169.778 35.625C168.619 36.1023 167.282 36.3409 165.767 36.3409C163.456 36.3409 161.616 35.8598 160.244 34.8977C158.881 33.928 158.081 32.6098 157.847 30.9432L162.608 30.6932C162.752 31.3977 163.1 31.9356 163.653 32.3068C164.206 32.6705 164.915 32.8523 165.778 32.8523C166.627 32.8523 167.309 32.6894 167.824 32.3636C168.347 32.0303 168.612 31.6023 168.619 31.0795C168.612 30.6402 168.426 30.2803 168.062 30C167.699 29.7121 167.138 29.4924 166.381 29.3409L163.358 28.7386C161.653 28.3977 160.384 27.8068 159.551 26.9659C158.725 26.125 158.312 25.053 158.312 23.75C158.312 22.6288 158.616 21.6629 159.222 20.8523C159.835 20.0417 160.695 19.4167 161.801 18.9773C162.915 18.5379 164.218 18.3182 165.71 18.3182C167.915 18.3182 169.65 18.7841 170.915 19.7159C172.188 20.6477 172.93 21.9167 173.142 23.5227ZM176.588 36V18.5455H181.429V36H176.588ZM179.02 16.2955C178.3 16.2955 177.683 16.0568 177.168 15.5795C176.66 15.0947 176.406 14.5152 176.406 13.8409C176.406 13.1742 176.66 12.6023 177.168 12.125C177.683 11.6402 178.3 11.3977 179.02 11.3977C179.74 11.3977 180.353 11.6402 180.861 12.125C181.376 12.6023 181.634 13.1742 181.634 13.8409C181.634 14.5152 181.376 15.0947 180.861 15.5795C180.353 16.0568 179.74 16.2955 179.02 16.2955ZM193.193 36.3409C191.428 36.3409 189.902 35.9659 188.614 35.2159C187.333 34.4583 186.345 33.4053 185.648 32.0568C184.951 30.7008 184.602 29.1288 184.602 27.3409C184.602 25.5379 184.951 23.9621 185.648 22.6136C186.345 21.2576 187.333 20.2045 188.614 19.4545C189.902 18.697 191.428 18.3182 193.193 18.3182C194.958 18.3182 196.481 18.697 197.761 19.4545C199.049 20.2045 200.042 21.2576 200.739 22.6136C201.436 23.9621 201.784 25.5379 201.784 27.3409C201.784 29.1288 201.436 30.7008 200.739 32.0568C200.042 33.4053 199.049 34.4583 197.761 35.2159C196.481 35.9659 194.958 36.3409 193.193 36.3409ZM193.216 32.5909C194.019 32.5909 194.689 32.3636 195.227 31.9091C195.765 31.447 196.17 30.8182 196.443 30.0227C196.723 29.2273 196.864 28.322 196.864 27.3068C196.864 26.2917 196.723 25.3864 196.443 24.5909C196.17 23.7955 195.765 23.1667 195.227 22.7045C194.689 22.2424 194.019 22.0114 193.216 22.0114C192.405 22.0114 191.723 22.2424 191.17 22.7045C190.625 23.1667 190.212 23.7955 189.932 24.5909C189.659 25.3864 189.523 26.2917 189.523 27.3068C189.523 28.322 189.659 29.2273 189.932 30.0227C190.212 30.8182 190.625 31.447 191.17 31.9091C191.723 32.3636 192.405 32.5909 193.216 32.5909ZM209.773 25.9091V36H204.932V18.5455H209.545V21.625H209.75C210.136 20.6098 210.784 19.8068 211.693 19.2159C212.602 18.6174 213.705 18.3182 215 18.3182C216.212 18.3182 217.269 18.5833 218.17 19.1136C219.072 19.6439 219.773 20.4015 220.273 21.3864C220.773 22.3636 221.023 23.5303 221.023 24.8864V36H216.182V25.75C216.189 24.6818 215.917 23.8485 215.364 23.25C214.811 22.6439 214.049 22.3409 213.08 22.3409C212.428 22.3409 211.852 22.4811 211.352 22.7614C210.86 23.0417 210.473 23.4508 210.193 23.9886C209.92 24.5189 209.78 25.1591 209.773 25.9091Z" fill="#F5F5F5"/>
<defs>
<filter id="filter0_d_1_2" x="12.0615" y="9.606" width="7.0527" height="29.7894" filterUnits="userSpaceOnUse" color-interpolation-filters="sRGB">
<feFlood flood-opacity="0" result="BackgroundImageFix"/>
<feColorMatrix in="SourceAlpha" type="matrix" values="0 0 0 0 0 0 0 0 0 0 0 0 0 0 0 0 0 0 127 0" result="hardAlpha"/>
<feOffset dy="0.5"/>
<feGaussianBlur stdDeviation="0.5"/>
<feComposite in2="hardAlpha" operator="out"/>
<feColorMatrix type="matrix" values="0 0 0 0 0 0 0 0 0 0 0 0 0 0 0 0 0 0 0.12 0"/>
<feBlend mode="normal" in2="BackgroundImageFix" result="effect1_dropShadow_1_2"/>
<feBlend mode="normal" in="SourceGraphic" in2="effect1_dropShadow_1_2" result="shape"/>
</filter>
<filter id="filter1_d_1_2" x="21.5391" y="19.709" width="7.0526" height="19.6842" filterUnits="userSpaceOnUse" color-interpolation-filters="sRGB">
<feFlood flood-opacity="0" result="BackgroundImageFix"/>
<feColorMatrix in="SourceAlpha" type="matrix" values="0 0 0 0 0 0 0 0 0 0 0 0 0 0 0 0 0 0 127 0" result="hardAlpha"/>
<feOffset dy="0.5"/>
<feGaussianBlur stdDeviation="0.5"/>
<feComposite in2="hardAlpha" operator="out"/>
<feColorMatrix type="matrix" values="0 0 0 0 0 0 0 0 0 0 0 0 0 0 0 0 0 0 0.12 0"/>
<feBlend mode="normal" in2="BackgroundImageFix" result="effect1_dropShadow_1_2"/>
<feBlend mode="normal" in="SourceGraphic" in2="effect1_dropShadow_1_2" result="shape"/>
</filter>
<filter id="filter2_d_1_2" x="31.0078" y="13.3926" width="7.0526" height="26" filterUnits="userSpaceOnUse" color-interpolation-filters="sRGB">
<feFlood flood-opacity="0" result="BackgroundImageFix"/>
<feColorMatrix in="SourceAlpha" type="matrix" values="0 0 0 0 0 0 0 0 0 0 0 0 0 0 0 0 0 0 127 0" result="hardAlpha"/>
<feOffset dy="0.5"/>
<feGaussianBlur stdDeviation="0.5"/>
<feComposite in2="hardAlpha" operator="out"/>
<feColorMatrix type="matrix" values="0 0 0 0 0 0 0 0 0 0 0 0 0 0 0 0 0 0 0.12 0"/>
<feBlend mode="normal" in2="BackgroundImageFix" result="effect1_dropShadow_1_2"/>
<feBlend mode="normal" in="SourceGraphic" in2="effect1_dropShadow_1_2" result="shape"/>
</filter>
</defs>
</svg>
