<svg width="208" height="208" viewBox="0 0 208 208" fill="none" xmlns="http://www.w3.org/2000/svg">
<path d="M39.2365 92.1529C39.1068 79.2794 38.977 66.409 38.8473 53.5354C38.8188 50.7 38.803 47.7885 39.803 45.1366C43.053 36.5163 53.7905 38.7536 60.9678 38.7157L91.6611 38.5511C111.902 38.4403 132.143 38.3327 152.38 38.222C157.32 38.1967 163.001 38.5131 166.01 42.4277C168.133 45.1936 168.244 48.9563 168.26 52.4437C168.431 86.3839 168.599 120.324 168.77 154.264C168.785 157.337 168.747 160.603 167.096 163.195C164.219 167.701 157.953 168.211 152.605 168.239C119.858 168.42 87.1073 168.597 54.3601 168.777C50.1544 168.799 45.417 168.603 42.5752 165.505C40.0783 162.783 39.9043 158.726 39.8694 155.037C39.6574 134.074 39.4486 113.112 39.2365 92.1498V92.1529ZM166.377 103.239H166.308C166.308 99.1815 166.333 95.1277 166.301 91.0707C166.228 82.0642 166.13 73.061 166.039 64.0545C165.988 59.102 165.947 54.1494 165.874 49.1968C165.808 44.7695 162.377 41.1239 157.985 40.8581C155.991 40.7378 153.988 40.7442 151.991 40.7378C142.197 40.7062 132.402 40.665 122.608 40.6777C114.709 40.6872 106.813 40.7821 98.9176 40.8233C92.9396 40.8549 86.9586 40.8644 80.9807 40.8897C79.6863 40.8961 79.5819 40.991 79.5787 42.2821C79.5661 48.817 79.5534 55.3487 79.5597 61.8836C79.5661 67.6527 79.5851 73.4217 79.623 79.1908C79.6579 84.1655 79.7243 89.1371 79.7813 94.1118C79.8319 98.6878 79.8984 103.264 79.9395 107.84C79.987 112.805 80.0281 117.767 80.0503 122.732C80.0661 126.631 80.0598 130.533 80.0408 134.432C80.0408 135.065 80.3161 135.267 80.8952 135.261C81.468 135.255 82.0376 135.302 82.6104 135.305C92.87 135.378 103.126 135.451 113.386 135.514C120.968 135.562 128.551 135.59 136.133 135.634C137.212 135.641 137.269 135.729 137.276 136.831C137.32 146.074 137.364 155.321 137.408 164.565C137.415 165.847 137.462 165.897 138.731 165.885C144.896 165.828 151.061 165.802 157.222 165.67C158.564 165.641 160.001 165.464 161.209 164.929C164.646 163.416 166.346 160.635 166.352 156.869C166.371 145.862 166.374 134.856 166.38 123.849C166.383 116.976 166.38 110.103 166.38 103.226L166.377 103.239ZM109.509 165.698C109.832 165.802 110.221 166.03 110.611 166.034C113.057 166.062 115.503 166.049 117.949 166.034C121.025 166.011 124.098 165.961 127.174 165.935C129.462 165.92 131.753 165.916 134.041 165.932C134.658 165.935 134.975 165.739 134.962 165.068C134.94 163.885 134.972 162.701 134.965 161.518C134.937 156.831 134.902 152.141 134.874 147.454C134.858 144.663 134.848 141.869 134.833 139.078C134.833 138.606 134.896 138.103 134.155 138.09C132.95 138.074 131.747 137.976 130.541 137.967C120.187 137.859 109.832 137.729 99.4777 137.672C92.6675 137.634 85.8541 137.71 79.0408 137.739C78.2559 137.742 77.5186 137.036 77.5154 136.258C77.5091 135.046 77.5154 133.837 77.5123 132.625C77.4648 122.349 77.4236 112.074 77.3699 101.799C77.3192 92.1245 77.2401 82.4535 77.199 72.7793C77.1547 62.5355 77.1388 52.2918 77.1104 42.048C77.1104 41.1935 76.854 40.9657 75.9489 40.9815C72.4995 41.0416 69.0501 41.1049 65.6007 41.1524C60.2811 41.2283 54.9614 41.2758 49.6417 41.3707C47.6069 41.4087 45.8062 42.1208 44.2651 43.491C42.0815 45.4372 41.3093 47.9341 41.3125 50.7633C41.341 68.8078 41.3568 86.8491 41.3916 104.894C41.4043 111.916 41.4359 118.935 41.4866 125.957C41.5182 130.435 41.6036 134.913 41.6638 139.388C41.7429 145.41 41.8758 151.432 41.8853 157.457C41.8916 162.008 45.5752 166.375 50.7272 166.271C57.7241 166.132 64.7241 166.249 71.7242 166.227C80.9363 166.198 90.1453 166.141 99.3574 166.097C102.361 166.081 105.364 166.081 108.364 166.043C108.728 166.037 109.089 165.828 109.5 165.698H109.509Z" fill="black" stroke="black" stroke-width="10.3706"/>
<path d="M99.541 88.0456C99.541 84.6468 99.4524 81.2449 99.5726 77.8524C99.6517 75.6055 100.402 73.4948 101.538 71.5264C103.069 68.8681 105.291 66.9757 107.994 65.6402C108.864 65.2099 109.842 64.9409 110.804 64.7573C115.405 63.8871 120.057 64.4883 124.687 64.3174C126.025 64.2668 127.37 64.3111 128.712 64.2921C131.301 64.251 133.738 64.9187 135.921 66.2194C138.624 67.8301 140.703 70.077 141.991 73.0327C142.798 74.884 143.168 76.767 143.171 78.7701C143.184 85.1531 143.225 91.5329 143.276 97.9159C143.301 100.887 142.228 103.53 140.548 105.843C138.918 108.087 136.731 109.84 134.089 110.837C132.753 111.34 131.383 111.755 129.883 111.745C124.143 111.717 118.399 111.824 112.658 111.796C111.671 111.789 110.696 111.296 109.699 111.138C108.737 110.986 107.918 110.581 107.152 110.03C106.063 109.251 104.899 108.549 103.924 107.647C102.342 106.182 101.161 104.356 100.503 102.321C99.9998 100.764 99.7277 99.0837 99.6581 97.4444C99.5283 94.3146 99.6201 91.1785 99.6201 88.0456C99.5948 88.0456 99.5663 88.0456 99.541 88.0456ZM141.016 87.9696C141.016 87.9696 140.991 87.9696 140.975 87.9696C140.975 85.1246 140.959 82.2828 140.981 79.4379C141 76.8556 140.456 74.4505 139.032 72.2574C136.658 68.6118 133.279 66.6719 128.969 66.5738C124.576 66.4725 120.177 66.6118 115.782 66.6118C113.377 66.6118 111.035 66.7384 108.804 67.8491C106.145 69.1688 104.221 71.1941 103 73.8112C102.12 75.6973 101.81 77.767 101.842 79.8904C101.914 85.3335 101.937 90.7766 101.94 96.2197C101.943 99.4064 102.614 102.381 104.671 104.897C107.085 107.846 110.168 109.514 114.051 109.498C118.949 109.479 123.845 109.416 128.744 109.448C130.728 109.46 132.624 109.043 134.301 108.115C138.446 105.815 140.858 102.289 140.997 97.4539C141.089 94.2956 141.016 91.131 141.016 87.9696Z" fill="black" stroke="black" stroke-width="10.3706"/>
</svg>
