<svg width="179" height="64" viewBox="0 0 179 64" fill="none" xmlns="http://www.w3.org/2000/svg">
<path d="M9.56478 26.7587C10.695 26.7587 11.7612 26.9826 12.7635 27.4304C13.7657 27.8569 14.6401 28.4433 15.3864 29.1897C16.1328 29.936 16.7192 30.8104 17.1457 31.8126C17.5935 32.8149 17.8174 33.8918 17.8174 35.0433C17.8174 35.6617 17.7535 36.2588 17.6255 36.8346L17.5935 36.8986H9.46882L7.42164 33.6359H13.4992C13.2006 32.7402 12.6995 32.0045 11.9958 31.4288C11.3134 30.853 10.5031 30.5651 9.56478 30.5651C8.98901 30.5651 8.44523 30.6824 7.93344 30.917C7.42164 31.1515 6.97382 31.4714 6.58998 31.8766C6.22746 32.2604 5.93958 32.7296 5.72633 33.284C5.51308 33.8171 5.40646 34.4036 5.40646 35.0433C5.40646 35.5338 5.50242 36.0456 5.69434 36.5787C5.88626 37.0905 6.16349 37.5596 6.52601 37.9861C6.88853 38.4126 7.32568 38.7751 7.83748 39.0737C8.34927 39.3509 8.92504 39.4895 9.56478 39.4895C10.1405 39.4895 10.663 39.4149 11.1321 39.2656C11.6226 39.095 12.0811 38.7325 12.5076 38.178L12.5396 38.1461L12.6035 38.178L16.314 39.8094L16.2501 39.8734C15.4824 40.9396 14.5014 41.7713 13.3073 42.3683C12.1344 42.9654 10.8869 43.264 9.56478 43.264C8.41324 43.264 7.32568 43.0507 6.3021 42.6242C5.29983 42.1977 4.42552 41.6113 3.67916 40.865C2.93279 40.1186 2.3357 39.2443 1.88788 38.242C1.46139 37.2398 1.24814 36.1735 1.24814 35.0433C1.24814 33.8918 1.46139 32.8149 1.88788 31.8126C2.3357 30.8104 2.93279 29.936 3.67916 29.1897C4.42552 28.4433 5.29983 27.8569 6.3021 27.4304C7.32568 26.9826 8.41324 26.7587 9.56478 26.7587ZM20.716 20.6171H24.9383V43.0081H20.684L20.716 20.6171ZM38.4164 20.6171C39.5039 20.6171 40.5275 20.8304 41.4871 21.2569C42.4467 21.6621 43.2891 22.2272 44.0141 22.9522C44.7391 23.6559 45.3042 24.4876 45.7094 25.4472C46.1359 26.4068 46.3492 27.4304 46.3492 28.5179C46.3492 29.6055 46.1359 30.6291 45.7094 31.5887C45.3042 32.5483 44.7391 33.38 44.0141 34.0837C43.2891 34.7874 42.4467 35.3525 41.4871 35.779C40.5275 36.1842 39.5039 36.3868 38.4164 36.3868H35.9214L33.4904 31.9086H38.4164C38.8855 31.9086 39.3227 31.8233 39.7278 31.6527C40.1543 31.4608 40.5168 31.2049 40.8154 30.885C41.1139 30.5438 41.3485 30.1493 41.5191 29.7015C41.711 29.2323 41.807 28.7205 41.807 28.1661C41.807 27.6969 41.711 27.2491 41.5191 26.8226C41.3485 26.3748 41.1139 25.9803 40.8154 25.6391C40.5168 25.2979 40.1543 25.0207 39.7278 24.8074C39.3227 24.5942 38.8855 24.4876 38.4164 24.4876H32.7546V43.0081H28.3084V20.6171H38.4164ZM49.3887 43.0081V27.0146H53.6429V43.0081H49.3887ZM49.3887 20.6171H53.6429V24.3596H49.3887V20.6171ZM56.2134 43.0081L60.4997 37.1864L64.4021 38.9777L61.4273 43.0081H56.2134ZM67.2809 35.0753L73.1666 43.0081H67.9207V42.9761L62.099 35.1073L56.2454 27.0146H61.4273L64.658 32.4524L67.9207 27.0146H73.1666L73.1026 27.0465L67.2809 35.0753ZM101.635 43.0081L99.9717 39.0417H89.7359L88.0405 43.0081H83.2425L92.4228 20.6171H97.2528L91.3352 35.0433H98.3404L95.1737 27.3664L98.7882 24.2637L106.433 43.0081H101.635ZM108.613 20.6171H113.284V43.0081H108.613V20.6171Z" fill="black"/>
<path d="M114.608 16.8482C114.608 7.55035 122.146 0.0129395 131.444 0.0129395H161.747C171.045 0.0129395 178.583 7.55035 178.583 16.8482V47.1517C178.583 56.4497 171.045 63.9871 161.747 63.9871H131.444C122.146 63.9871 114.608 56.4497 114.608 47.1517V16.8482Z" fill="white"/>
<path d="M126.68 28.5003C126.64 24.5296 126.6 20.5598 126.56 16.5891C126.551 15.7146 126.546 14.8166 126.855 13.9986C127.857 11.3398 131.169 12.0299 133.383 12.0181L142.85 11.9674C149.093 11.9332 155.336 11.9 161.578 11.8659C163.102 11.8581 164.854 11.9557 165.782 13.1631C166.437 14.0162 166.471 15.1767 166.476 16.2524C166.529 26.7209 166.58 37.1893 166.633 47.6578C166.638 48.6056 166.626 49.6129 166.117 50.4123C165.229 51.8023 163.297 51.9594 161.647 51.9682C151.547 52.0238 141.445 52.0785 131.345 52.1341C130.048 52.141 128.586 52.0805 127.71 51.1249C126.94 50.2854 126.886 49.0341 126.875 47.896C126.81 41.4304 126.745 34.9658 126.68 28.5003ZM165.895 31.9195H165.874C165.874 30.6681 165.882 29.4178 165.872 28.1664C165.849 25.3885 165.819 22.6116 165.791 19.8336C165.775 18.3061 165.762 16.7785 165.74 15.2509C165.719 13.8854 164.661 12.7609 163.307 12.6789C162.692 12.6419 162.074 12.6438 161.458 12.6419C158.437 12.6321 155.416 12.6194 152.395 12.6233C149.959 12.6262 147.523 12.6555 145.088 12.6682C143.244 12.678 141.399 12.6809 139.556 12.6887C139.156 12.6907 139.124 12.7199 139.123 13.1182C139.119 15.1338 139.115 17.1484 139.117 19.164C139.119 20.9434 139.125 22.7228 139.137 24.5022C139.148 26.0366 139.168 27.5701 139.186 29.1045C139.201 30.5159 139.222 31.9273 139.234 33.3387C139.249 34.8702 139.262 36.4007 139.269 37.9321C139.273 39.1347 139.272 40.3382 139.266 41.5407C139.266 41.7359 139.351 41.7984 139.529 41.7965C139.706 41.7945 139.882 41.8091 140.058 41.8101C143.223 41.8326 146.386 41.855 149.551 41.8745C151.889 41.8892 154.228 41.898 156.567 41.9116C156.9 41.9136 156.917 41.9409 156.919 42.2806C156.933 45.1317 156.946 47.9838 156.96 50.835C156.962 51.2303 156.977 51.2459 157.368 51.242C159.27 51.2244 161.171 51.2166 163.071 51.1756C163.485 51.1668 163.928 51.1122 164.301 50.9472C165.361 50.4807 165.885 49.6227 165.887 48.4611C165.893 45.0663 165.894 41.6715 165.896 38.2767C165.897 36.1567 165.896 34.0366 165.896 31.9156L165.895 31.9195ZM148.355 51.1844C148.455 51.2166 148.575 51.2869 148.695 51.2879C149.449 51.2967 150.204 51.2928 150.958 51.2879C151.907 51.281 152.855 51.2654 153.803 51.2576C154.509 51.2527 155.216 51.2518 155.922 51.2566C156.112 51.2576 156.21 51.1971 156.206 50.9902C156.199 50.6251 156.209 50.2601 156.207 49.895C156.198 48.4494 156.187 47.0029 156.178 45.5573C156.173 44.6964 156.17 43.8345 156.166 42.9736C156.166 42.8282 156.185 42.673 155.957 42.6691C155.585 42.6642 155.214 42.6339 154.842 42.631C151.648 42.5978 148.455 42.5578 145.261 42.5402C143.16 42.5285 141.059 42.5519 138.957 42.5607C138.715 42.5617 138.488 42.344 138.487 42.1039C138.485 41.7301 138.487 41.3572 138.486 40.9834C138.471 37.814 138.458 34.6447 138.442 31.4754C138.426 28.4915 138.402 25.5086 138.389 22.5247C138.376 19.3651 138.371 16.2055 138.362 13.046C138.362 12.7824 138.283 12.7121 138.004 12.717C136.94 12.7356 135.876 12.7551 134.812 12.7697C133.171 12.7931 131.53 12.8078 129.889 12.8371C129.262 12.8488 128.706 13.0684 128.231 13.491C127.558 14.0913 127.319 14.8615 127.32 15.7341C127.329 21.2997 127.334 26.8643 127.345 32.43C127.349 34.5959 127.358 36.7608 127.374 38.9268C127.384 40.3079 127.41 41.6891 127.429 43.0693C127.453 44.9268 127.494 46.7842 127.497 48.6427C127.499 50.0463 128.635 51.3933 130.224 51.3611C132.382 51.3181 134.541 51.3543 136.701 51.3474C139.542 51.3386 142.382 51.3211 145.224 51.3074C146.15 51.3025 147.076 51.3025 148.002 51.2908C148.114 51.2889 148.225 51.2244 148.352 51.1844H148.355Z" fill="black" stroke="black" stroke-width="3.19871"/>
<path d="M145.28 27.2334C145.28 26.1851 145.253 25.1358 145.29 24.0894C145.314 23.3964 145.546 22.7454 145.896 22.1382C146.369 21.3183 147.054 20.7346 147.887 20.3227C148.156 20.19 148.457 20.107 148.754 20.0504C150.173 19.782 151.608 19.9674 153.036 19.9147C153.449 19.8991 153.864 19.9128 154.278 19.9069C155.076 19.8942 155.828 20.1002 156.501 20.5013C157.335 20.9982 157.976 21.6912 158.373 22.6029C158.622 23.1739 158.736 23.7546 158.737 24.3725C158.741 26.3412 158.754 28.309 158.77 30.2778C158.777 31.1943 158.447 32.0094 157.928 32.7229C157.426 33.4149 156.751 33.9557 155.936 34.2631C155.524 34.4183 155.102 34.5462 154.639 34.5433C152.868 34.5345 151.097 34.5677 149.326 34.5589C149.022 34.5569 148.721 34.4047 148.413 34.3559C148.117 34.309 147.864 34.1841 147.628 34.0142C147.292 33.7741 146.933 33.5574 146.632 33.2792C146.144 32.8273 145.78 32.2641 145.577 31.6365C145.422 31.1563 145.338 30.638 145.316 30.1324C145.276 29.167 145.305 28.1997 145.305 27.2334C145.297 27.2334 145.288 27.2334 145.28 27.2334ZM158.073 27.21C158.073 27.21 158.065 27.21 158.06 27.21C158.06 26.3325 158.055 25.4559 158.062 24.5784C158.068 23.782 157.9 23.0401 157.461 22.3637C156.729 21.2393 155.686 20.6409 154.357 20.6107C153.002 20.5794 151.645 20.6224 150.289 20.6224C149.548 20.6224 148.825 20.6614 148.137 21.004C147.317 21.4111 146.724 22.0357 146.347 22.843C146.076 23.4247 145.98 24.0631 145.99 24.718C146.012 26.3969 146.019 28.0757 146.02 29.7546C146.021 30.7375 146.228 31.655 146.862 32.431C147.607 33.3407 148.558 33.8551 149.756 33.8502C151.267 33.8444 152.777 33.8249 154.287 33.8346C154.899 33.8385 155.484 33.7097 156.001 33.4237C157.28 32.7141 158.024 31.6267 158.067 30.1353C158.095 29.1611 158.073 28.1851 158.073 27.21Z" fill="black" stroke="black" stroke-width="3.19871"/>
</svg>
